<svg height="980" viewBox="0 0 1400 980" width="1400" xmlns="http://www.w3.org/2000/svg"><g fill="#ff9e80"><path d="m177.1 108.8h-16.7c-.6 0-1.3.3-1.7.7l-15.1 15.1h-40.6l-3.2-8.3 20.6-7.8c1-.4 1.6-1.4 1.6-2.4-.1-1.1-.8-2-1.9-2.2l-28.7-6.3c-.1 0-.3 0-.4-.1h-.1c-.1 0-.2 0-.3 0h-.1c-.1 0-.3.1-.4.1s-.2.1-.4.2c0 0-.1 0-.1.1-.1.1-.2.1-.3.2 0 0 0 0-.1.1s-.2.2-.2.3l-17.4 23.7c-.6.9-.6 2 0 2.9.5.6 1.2 1 1.9 1 .3 0 .6-.1.9-.2l21-7.9 2.5 6.6h-14c-1 0-1.9.6-2.3 1.6-.4.9-.1 2 .7 2.7l40.4 35.5v44.8h-11.3c-1.3 0-2.4 1.1-2.4 2.4s1.1 2.4 2.4 2.4h27.4c1.3 0 2.4-1.1 2.4-2.4s-1.1-2.4-2.4-2.4h-11.3v-44.8l40.4-35.5c.8-.7 1-1.7.7-2.7-.4-.9-1.3-1.6-2.3-1.6h-15.9l11-11h15.7c1.3 0 2.4-1.1 2.4-2.4 0-1.4-1.1-2.4-2.4-2.4zm-79.1 3-1.9-4.9 5.3 3.7zm9-3.4-5.3-3.6 9.5 2.1zm-21.1 2.3-1.6 6.3-4.2 1.6zm3.9 4.2 1.7-6.6 2 5.2zm11.5 14.5c.1 0 .1 0 0 0h37.4l-8.3 8.3h-30.8l-9.4-8.3zm23.8 30.6-20-17.5h39.9zm34.8-30.6-9.4 8.3h-13.2l8.3-8.3z"/><path d="m454.4 120.6h-15.4l15.8-15c1-.9 1-2.4.1-3.4s-2.4-1-3.4-.1l-19.5 18.5h-60.1c-1 0-1.9.6-2.3 1.6-.4.9-.1 2 .7 2.7l40.4 35.5v44.8h-11.3c-1.3 0-2.4 1.1-2.4 2.4s1.1 2.4 2.4 2.4h27.4c1.3 0 2.4-1.1 2.4-2.4s-1.1-2.4-2.4-2.4h-11.3v-44.8l40.4-35.5c.8-.7 1-1.7.7-2.7-.3-.9-1.2-1.6-2.2-1.6zm-27.5 4.9-3.2 3c-2.7-.8-6.1.4-8.7 3.2-.6.6-1.1 1.3-1.5 2h-25.8l-9.4-8.3h48.6zm-13.8 30.6-20-17.5h18.9c0 .7.1 1.4.4 2l-3 3.2c-.9 1-.8 2.5.1 3.4.5.4 1 .6 1.6.6.7 0 1.3-.3 1.8-.8l3-3.2c.5.1 1 .2 1.6.2s1.2-.1 1.9-.2c1.8-.5 3.7-1.6 5.1-3.2.6-.6 1.1-1.3 1.5-2h7zm8.9-23c.2 0 .4.1.5.1.1.1.2.6.1 1.2-.2 1-.7 2-1.6 2.9-.8.9-1.8 1.6-2.8 1.8-.6.2-1 .1-1.2 0-.1-.1-.2-.6-.1-1.2.2-1 .7-2 1.6-2.9 1.4-1.5 2.7-1.9 3.5-1.9zm16.6.6h-11.1c0-.7-.1-1.3-.3-1.9l6.7-6.4h14.1z"/><path d="m755.6 103.2h-16.7c-.6 0-1.3.3-1.7.7l-15.1 15.1h-41.7c-1.2-8.9-8.8-15.8-18.1-15.8-10.1 0-18.2 8.2-18.2 18.2s8.2 18.2 18.2 18.2c4.4 0 8.7-1.6 12-4.5l26.9 23.6v44.8h-11.3c-1.3 0-2.4 1.1-2.4 2.4s1.1 2.4 2.4 2.4h27.4c1.3 0 2.4-1.1 2.4-2.4s-1.1-2.4-2.4-2.4h-11.3v-44.8l40.4-35.5c.8-.7 1-1.7.7-2.7-.4-.9-1.3-1.6-2.3-1.6h-15.9l11-11h15.7c1.3 0 2.4-1.1 2.4-2.4s-1.1-2.3-2.4-2.3zm-52 51.2-20-17.5h39.9zm-25.5-22.4-2.3-2-7.1-6.2h48.6l-8.3 8.2zm-15.8 2.8c-7.4 0-13.4-6-13.4-13.4s6-13.4 13.4-13.4c6.6 0 12 4.8 13.2 11h-13.2c-1 0-1.9.6-2.3 1.6-.4.9-.1 2 .7 2.7l9.9 8.7c-2.4 1.7-5.3 2.8-8.3 2.8zm76.1-11-9.4 8.2h-13.2l8.3-8.3h14.3z"/><path d="m957.9 193h62c1.2 0 2.3-1 2.4-2.2l6.3-69.7c.1-.7-.2-1.3-.6-1.8s-1.1-.8-1.8-.8h-74.6c-.7 0-1.3.3-1.8.8s-.7 1.2-.6 1.8l6.3 69.7c.1 1.2 1.2 2.2 2.4 2.2zm47.7-45.4-6 4.1-4.1-6 6-4.1zm-13.6 1.5 5 7.3c.4.5.9.9 1.5 1h.4c.5 0 1-.1 1.4-.4l10-6.8c.4-.3.7-.7.9-1.1h10l-2.8 30.5h-59.1l-2.8-30.5zm-31.9 39.1-.3-3.7h58.2l-.3 3.7zm63.5-64.9-1.9 21h-12.5l-5-7.3c-.8-1.1-2.3-1.4-3.4-.6l-10 6.8c-.4.3-.7.7-.9 1.1h-33.8l-1.9-21z"/><path d="m976.4 170.6 11.3 4.3c.3.1.6.2.9.2 1 0 1.9-.6 2.3-1.6l4.3-11.3c.2-.6.2-1.3-.1-1.8-.3-.6-.7-1-1.3-1.3l-11.3-4.3c-.6-.2-1.3-.2-1.8.1-.6.3-1 .7-1.3 1.3l-4.3 11.3c-.6 1.2 0 2.6 1.3 3.1zm6.5-10.5 6.8 2.6-2.6 6.8-6.8-2.6z"/><path d="m1326.6 103.1h-15.3c-.9 0-1.8.5-2.2 1.4l-9.6 20h-40.5c-1.2-8.4-8.4-14.9-17.1-14.9-9.5 0-17.3 7.8-17.3 17.3s7.8 17.3 17.3 17.3c1.9 0 3.7-.3 5.4-.9 7.4 9.8 18.3 16 30.4 16.7v43.5h-11.3c-1.3 0-2.4 1.1-2.4 2.4s1.1 2.4 2.4 2.4h27.4c1.3 0 2.4-1.1 2.4-2.4s-1.1-2.4-2.4-2.4h-11.3v-43.5c17.8-1.1 33-13.8 38.2-32.5.2-.7.1-1.5-.4-2.1s-1.2-1-1.9-1h-13.7l8-16.6h13.8c1.3 0 2.4-1.1 2.4-2.4s-1-2.3-2.3-2.3zm-76.2 36.1c-.1-.2-.2-.3-.4-.5-1.9-2.8-3.5-6-4.8-9.4h51.9l-4.8 9.9zm-8.5.2c-6.9 0-12.5-5.6-12.5-12.5s5.6-12.5 12.5-12.5c6.1 0 11.1 4.3 12.2 10.1h-12.2c-.8 0-1.5.4-1.9 1-.5.6-.6 1.4-.4 2.1 1.2 4.2 2.8 8 4.9 11.5-.8.2-1.7.3-2.6.3zm38.3 15.9c-9.9 0-19.1-4.2-25.9-11.2h39.6 12.2c-6.8 7-15.9 11.2-25.9 11.2zm35-26c-1.3 3.6-3 6.9-5.1 9.9h-12.4l4.8-9.9z"/><path d="m1298.2 342.2c9.9 0 17.9-8 17.9-17.9s-8-17.9-17.9-17.9c-9 0-16.5 6.7-17.7 15.5h-12.2l-1.7-12.9c-.4-2.9-2.1-5.5-4.6-7s-5.6-1.7-8.3-.7l-14.7 5.7c-1.2.5-1.9 1.9-1.4 3.1s1.9 1.9 3.1 1.4l14.7-5.7c1.4-.5 2.9-.4 4.1.3 1.3.7 2.1 2 2.3 3.4l1.6 12.3h-12.4c-.8 0-1.5.4-2 1s-.6 1.5-.3 2.2c.1.1 3.8 10.7 3.3 21.8-.2 3.8-.8 7.7-2.3 11.3-2.3 5.5-9.4 31 .8 46.3 4.6 7 12 10.7 22 11.3v29h-10.3c-1.3 0-2.4 1.1-2.4 2.4s1.1 2.4 2.4 2.4h25.4c1.3 0 2.4-1.1 2.4-2.4s-1.1-2.4-2.4-2.4h-10.3v-29c10-.5 17.4-4.3 22-11.3 10.2-15.3 3.1-40.9.8-46.3-2.1-5.1-2.6-10.8-2.3-16 .2.1.3.1.4.1zm0-30.9c7.2 0 13.1 5.9 13.1 13.1s-5.8 13-12.9 13c.9-6.9 2.8-12.1 2.8-12.2.3-.7.2-1.6-.3-2.2s-1.2-1-2-1h-13.5c1.2-6.1 6.5-10.7 12.8-10.7zm-2.6 15.5c-1.1 3.8-2.6 10.4-2.6 17.8h-21.6l-2.4-17.8zm-31.5 0 2.4 17.8h-9.6c0-7.3-1.6-14-2.6-17.8zm31.3 75.1c-4.1 6.1-10.9 9.2-20.4 9.2s-16.3-3.1-20.4-9.2c-8.4-12.6-3.2-35-.4-41.8 1.4-3.5 2.2-7.1 2.6-10.8h36.4c.3 3.6 1.1 7.3 2.6 10.8 2.8 6.7 8 29.2-.4 41.8z"/><path d="m987.5 382c1 0 1.9-.6 2.3-1.6l4.3-11.3c.2-.6.2-1.3-.1-1.8-.3-.6-.7-1-1.3-1.3l-11.3-4.3c-.6-.2-1.3-.2-1.8.1-.6.3-1 .7-1.3 1.3l-4.3 11.3c-.5 1.2.2 2.6 1.4 3.1l11.3 4.3c.2.2.5.2.8.2zm-8.2-8.1 2.6-6.8 6.8 2.6-2.6 6.8z"/><path d="m999.4 382.3c-.4-.5-.9-.9-1.6-1-.6-.1-1.3 0-1.8.4l-9.8 7c-1.1.8-1.3 2.3-.6 3.4l7 9.8c.4.5.9.9 1.6 1h.4c.5 0 1-.2 1.4-.5l9.8-7c1.1-.8 1.3-2.3.6-3.4zm-4.2 14.9-4.2-5.9 5.9-4.2 4.2 5.9z"/><path d="m950.1 326.3c.3 0 .6-.1.9-.2l19.9-7.5 2 6.1h-6.9c-.8 0-1.5.4-2 1s-.6 1.5-.3 2.2c.1.1 3.8 10.6 3.3 21.8-.2 3.8-.8 7.7-2.3 11.3-2.3 5.5-9.4 31 .8 46.3 4.6 7 12 10.7 22 11.3v29h-10.3c-1.3 0-2.4 1.1-2.4 2.4s1.1 2.4 2.4 2.4h25.4c1.3 0 2.4-1.1 2.4-2.4s-1.1-2.4-2.4-2.4h-10.3v-29c10-.5 17.4-4.3 22-11.3 10.2-15.3 3.1-40.9.8-46.3-5.8-13.9.9-32.9 1-33.1.3-.7.2-1.6-.3-2.2s-1.2-1-2-1h-9.6l1.6-12.3c.2-1.4 1-2.7 2.3-3.4s2.8-.9 4.1-.3l14.7 5.7c1.2.5 2.6-.1 3.1-1.4.5-1.2-.1-2.6-1.4-3.1l-14.7-5.7c-2.7-1.1-5.8-.8-8.3.7s-4.2 4-4.6 7l-1.7 12.9h-21.5l-2.5-7.8 21.7-8.2c1-.4 1.6-1.4 1.6-2.4-.1-1.1-.8-2-1.9-2.2l-28.7-6.3c-.1 0-.1 0-.2 0h-.1c-.1 0-.3 0-.4 0h-.1c-.1 0-.2 0-.3.1 0 0 0 0-.1 0s-.3.1-.4.2-.2.1-.3.2c0 0-.1.1-.1.1-.1.1-.2.1-.2.2 0 0-.1.1-.1.1l-17.4 23.7c-.6.9-.6 2 0 2.9.3.6 1 .9 1.8.9zm24.2 3.4 5.7 17.8h-8.1c0-7.3-1.6-14-2.6-17.8zm36 75.1c-4.1 6.1-10.9 9.2-20.4 9.2s-16.3-3.1-20.4-9.2c-8.4-12.6-3.2-35-.4-41.8 1.4-3.5 2.2-7.1 2.6-10.8h11.6s0 0 0 0h24.8c.3 3.6 1.1 7.3 2.6 10.8 2.8 6.8 8 29.2-.4 41.8zm.3-75.1c-1.1 3.8-2.6 10.4-2.6 17.8h-6.8l2.4-17.8zm-11.9 0-2.4 17.8h-11.2l-5.7-17.8zm-32.2-14.5 1.4-5.6 1.4 4.5zm5.6-8.5 6 4.1-4.2 1.6zm11.5 2-5.3-3.6 9.5 2.1zm-21 2.3-1.6 6.3-4.2 1.6z"/><path d="m712.8 313.2c1.3-.7 2.8-.9 4.1-.3l14.7 5.7c1.2.5 2.6-.1 3.1-1.4.5-1.2-.1-2.6-1.4-3.1l-14.7-5.7c-2.8-1.1-5.8-.8-8.3.7s-4.2 4-4.6 7l-1.2 9.1h-34.9c-1.3 0-2.4 1.1-2.4 2.4v43.3c0 14.5 11.2 26.4 25.4 27.7v39.4h-10.3c-1.3 0-2.4 1.1-2.4 2.4s1.1 2.4 2.4 2.4h25.4c1.3 0 2.4-1.1 2.4-2.4s-1.1-2.4-2.4-2.4h-10.3v-39.4c14.2-1.2 25.4-13.2 25.4-27.7v-43.3c0-1.3-1.1-2.4-2.4-2.4h-11l1.1-8.4c.2-1.6 1-2.9 2.3-3.6zm-8.9 16.7-2.8 20.9h-4.7l.3-1.1c.4-1.3-.4-2.6-1.7-3l-11.6-3.3c-1.3-.4-2.6.4-3 1.7l-1.6 5.7h-6.8v-20.9zm-19.5 18.8 7 2-2 7-7-2zm10.6 45c-12.7 0-23-10.3-23-23v-15.1h5.4l-.3 1.1c-.4 1.3.4 2.6 1.7 3l11.6 3.3c.2.1.4.1.7.1 1 0 2-.7 2.3-1.7l1.6-5.7h23v15.1c0 12.6-10.3 22.9-23 22.9zm23-63.8v20.9h-12l2.8-20.9z"/><path d="m708.6 369.7-11.3-4.3c-1.2-.5-2.6.2-3.1 1.4l-4.3 11.3c-.5 1.2.2 2.6 1.4 3.1l11.3 4.3c.3.1.6.2.9.2 1 0 1.9-.6 2.3-1.6l4.3-11.3c.4-1.3-.3-2.7-1.5-3.1zm-6.6 10.4-6.8-2.6 2.6-6.8 6.8 2.6z"/><path d="m453.1 314.1-14.7-5.7c-2.8-1.1-5.8-.8-8.3.7s-4.2 4-4.6 7l-1.2 9.1h-19l6.2-6.7c.9-.9.9-2.4 0-3.3-.4-.5-.8-.9-1.2-1.3-9.3-8.7-23.8-8.2-32.5 1.1-4.2 4.5-6.4 10.3-6.2 16.5.2 6.1 2.8 11.8 7.3 16 .4.4.8.7 1.3 1.1.4.4 1 .5 1.5.5.6 0 1.3-.3 1.8-.8l3.5-3.8v26.2c0 14.5 11.2 26.4 25.4 27.7v39.4h-10.3c-1.3 0-2.4 1.1-2.4 2.4s1.1 2.4 2.4 2.4h25.4c1.3 0 2.4-1.1 2.4-2.4s-1.1-2.4-2.4-2.4h-10.3v-39.4c14.2-1.2 25.4-13.2 25.4-27.7v-43.3c0-1.3-1.1-2.4-2.4-2.4h-11l1.1-8.4c.2-1.4 1-2.7 2.3-3.4s2.8-.9 4.1-.3l14.7 5.7c1.2.5 2.6-.1 3.1-1.4.5-1.2-.1-2.6-1.4-3.1zm-61.2 36.7v-20.9h31.8l-2.8 20.9zm-10.3-7.5c-3.2-3.2-5-7.5-5.1-12.1-.2-4.8 1.6-9.5 4.9-13 6.7-7.1 17.7-7.7 25-1.4l-7.7 8.2h-9.2c-1.3 0-2.4 1.1-2.4 2.4v10zm33.2 50.4c-12.7 0-23-10.3-23-23v-15.1h45.9v15.1c.1 12.7-10.2 23-22.9 23zm23-63.8v20.9h-12l2.8-20.9z"/><path d="m161.1 325.6c.5-1.2-.1-2.6-1.4-3.1l-13.3-5.2c-2.6-1-5.4-.8-7.8.6s-3.9 3.8-4.3 6.5l-.9 6.3h-9.3c-1.2-8.5-8.5-15.1-17.4-15.1-9.7 0-17.6 7.9-17.6 17.6 0 8.9 6.6 16.2 15.1 17.4v81.8c0 1.3 1.1 2.4 2.4 2.4h40.5c1.3 0 2.4-1.1 2.4-2.4v-99.2c0-1.3-1.1-2.4-2.4-2.4h-9l.8-5.7c.2-1.3.9-2.3 2-3 1.1-.6 2.4-.7 3.6-.3l13.5 5.2c1.3.4 2.7-.2 3.1-1.4zm-16.2 95.2h-35.7v-60.6h23.1 12.6zm-35.7-65.5v-19.7h23.7l-2.7 19.7zm-15.2-22.1c0-7 5.7-12.7 12.7-12.7 6.2 0 11.4 4.4 12.5 10.3h-12.5c-1.3 0-2.4 1.1-2.4 2.4v12.5c-5.8-1.2-10.3-6.3-10.3-12.5zm15.2 96.7v-4.3h35.7v4.3zm35.7-94.3v19.7h-9.8l2.7-19.7z"/><path d="m158.2 557.8c.1-.2.1-.5.1-.7 0-.4-.1-.8-.3-1.1-.9-10.4-3.7-17.6-3.9-18.1-.4-.9-1.3-1.5-2.2-1.5h-53.3c-1 0-1.9.6-2.2 1.5-.2.5-3 7.7-3.9 18.1-.2.3-.3.7-.3 1.1 0 .3.1.5.1.7-.6 9.1.3 20.3 5.2 31.8 12.3 29 6.9 60.1 6.9 60.5-.1.7.1 1.4.5 2 .5.5 1.1.9 1.9.9h36.9c.7 0 1.4-.3 1.9-.9.5-.5.7-1.3.5-2-.1-.3-5.4-31.5 6.9-60.5 4.9-11.5 5.8-22.7 5.2-31.8zm-57.9-16.6h49.9c.7 2.3 2.1 7.2 2.8 13.5h-55.5c.7-6.4 2.1-11.2 2.8-13.5zm9.3 106.9c.1-1 .3-2.2.4-3.6h30.6c.1 1.4.3 2.6.4 3.6zm30.6-8.4h-29.9c.6-12.1 0-32.3-8.4-51.9-4.3-10.1-5.2-20-4.8-28.3h56.2c.4 8.2-.6 18.2-4.8 28.3-8.3 19.6-9 39.8-8.3 51.9z"/><path d="m134.2 599.2c-.4-.5-.9-.9-1.6-1-.6-.1-1.3 0-1.8.4l-8.8 6.4c-1.1.8-1.3 2.3-.6 3.4l6.3 8.8c.4.5.9.9 1.6 1h.4c.5 0 1-.2 1.4-.5l8.8-6.3c1.1-.8 1.3-2.3.6-3.4zm-3.9 13.2-3.5-4.9 4.9-3.5 3.5 4.9z"/><path d="m125.8 595.3-.5-10.8c-.1-1.3-1.2-2.4-2.5-2.3l-10.8.5c-1.3.1-2.4 1.2-2.3 2.5l.5 10.8c.1 1.3 1.1 2.3 2.4 2.3h.1l10.8-.5c1.3 0 2.4-1.1 2.3-2.5zm-11-1.8-.3-6 6-.3.3 6z"/><path d="m134.5 567.5c-.9-.9-2.5-.9-3.4 0l-7.7 7.7c-.9.9-.9 2.5 0 3.4l7.7 7.7c.5.5 1.1.7 1.7.7s1.2-.2 1.7-.7l7.7-7.7c.9-.9.9-2.5 0-3.4zm-1.7 13.7-4.3-4.3 4.3-4.3 4.3 4.3z"/><path d="m441.6 568.3c-.1-7.8-.8-15.3-2.1-22.3-.2-1.1-1.2-2-2.4-2h-19c-1.1-8.2-8.1-14.6-16.6-14.6-9.3 0-16.8 7.5-16.8 16.8 0 8.6 5.5 15.3 13.2 16.6-.1 1.7-.2 3.5-.2 5.2v.3.2 2.1c0 29.7 8.3 52.7 19.6 55.5v28.7h-10.6c-1.3 0-2.4 1.1-2.4 2.4s1.1 2.4 2.4 2.4h26.1c1.3 0 2.4-1.1 2.4-2.4s-1.1-2.4-2.4-2.4h-10.8v-28.7c11.3-2.9 19.6-25.8 19.6-55.5 0-.7 0-1.4 0-2.3 0 .1 0 .1 0 0zm-4.9-2.3h-34.1c.2-5.9.7-11.6 1.6-17h30.8c1 5.3 1.5 11 1.7 17zm-47.2-19.7c0-6.6 5.4-12 12-12 5.8 0 10.7 4.2 11.7 9.7h-11.1c-1.2 0-2.2.8-2.4 2-.7 3.9-1.3 7.9-1.6 12-5.1-1-8.6-5.6-8.6-11.7zm30.1 75.4c-8.1 0-17.1-20.9-17.2-50.9h34.3c.1 30-9 50.9-17.1 50.9z"/><path d="m706.3 605.4c-.2-.6-.6-1.1-1.1-1.5l-8.1-4.5c-1.2-.7-2.6-.2-3.3.9l-4.5 8.1c-.3.6-.4 1.2-.2 1.8s.6 1.1 1.1 1.5l8.1 4.5c.4.2.8.3 1.2.3.8 0 1.7-.4 2.1-1.2l4.5-8.1c.3-.5.4-1.2.2-1.8zm-7.8 5.5-3.9-2.2 2.2-3.9 3.9 2.2z"/><path d="m669.2 563c.5.6 1.2 1 1.9 1 .5 0 1-.2 1.4-.5l3.8-2.8c-.4 4.3-.6 8.7-.6 13.2 0 29.7 8.3 52.7 19.6 55.5v28.7h-10.6c-1.3 0-2.4 1.1-2.4 2.4s1.1 2.4 2.4 2.4h26.1c1.3 0 2.4-1.1 2.4-2.4s-1.1-2.4-2.4-2.4h-10.6v-28.7c11.3-2.9 19.6-25.8 19.6-55.5 0-8.7-.7-16.9-2.2-24.6-.2-1.1-1.2-2-2.4-2h-5.1l1.8-12.3c.2-1.4 1-2.7 2.3-3.4s2.8-.9 4.1-.3l14.7 5.7c1.2.5 2.6-.1 3.1-1.4.5-1.2-.1-2.6-1.4-3.1l-14.7-5.7c-2.8-1.1-5.8-.8-8.3.7s-4.2 4-4.6 6.9l-1.9 12.9h-10.7l1.8-1.3c1.1-.8 1.3-2.3.5-3.4-5.6-7.6-16.4-9.3-24-3.7-7.6 5.7-9.2 16.5-3.6 24.1zm28.5 62c-7 0-14.8-15.8-16.7-39.6h3l1.8 6.7c.2.6.6 1.1 1.1 1.5.4.2.8.3 1.2.3.2 0 .4 0 .6-.1l9-2.3c1.3-.3 2.1-1.7 1.7-2.9l-.8-3.1h15.8c-1.9 23.8-9.7 39.5-16.7 39.5zm-3.6-37.5-4.3 1.1-1.1-4.3 4.3-1.1zm19-35.2c1.1 6.8 1.7 14.1 1.7 21.8 0 2.3-.1 4.5-.2 6.6h-9.4l4.1-28.4zm-12.7 28.3h-3.1l-.3-1c-.2-.6-.6-1.1-1.1-1.5-.6-.3-1.2-.4-1.8-.3l-9 2.3c-.3.1-.5.2-.8.4h-3.7c-.1-2.2-.2-4.4-.2-6.6 0-7.6.6-14.9 1.7-21.8h22.2zm-24.7-37.7c4.8-3.5 11.4-3 15.6.9l-5 3.7h-6.1c-1.2 0-2.2.8-2.4 2-.3 1.6-.6 3.2-.8 4.8l-5.2 3.8c-2.4-5.3-.9-11.7 3.9-15.2z"/><path d="m998.1 607.1c-.6.3-1 .7-1.3 1.3l-4.3 11.3c-.5 1.2.2 2.6 1.4 3.1l11.3 4.3c.3.1.6.2.9.2s.7-.1 1-.2c.6-.3 1-.7 1.3-1.3l4.3-11.3c.5-1.2-.2-2.6-1.4-3.1l-11.3-4.3c-.7-.3-1.4-.3-1.9 0zm9.1 7.9-2.6 6.8-6.8-2.6 2.6-6.8z"/><path d="m987.2 610.1-29-14.9c-.6-.3-1.2-.3-1.8-.2-.6.2-1.1.6-1.4 1.2-2.6 5-2.6 10.6-.7 15.5v.1s0 .1.1.1c1.6 4 4.6 7.4 8.7 9.5 2.7 1.4 5.6 2.1 8.5 2.1 1.5 0 2.9-.2 4.3-.5h.1.1c5-1.3 9.5-4.6 12.1-9.6.7-1.2.2-2.7-1-3.3zm-23.9 5.8c-1.4-1-2.5-2.3-3.4-3.7l6.6-2.7zm-4.9-15.1 7.5 3.8-7.8 3.1c-.5-2.2-.4-4.6.3-6.9zm9.2 17.3 3.3-6.4 1.7 6.9c-1.8.2-3.4 0-5-.5zm9.6-.6-2-8.1 7.5 3.8c-1.4 1.9-3.3 3.4-5.5 4.3z"/><path d="m1033.5 553.1-14.7-5.7c-2.7-1.1-5.8-.8-8.3.7s-4.2 4-4.6 7l-1.7 12.9h-58.9c-.7 0-1.3.3-1.8.8s-.7 1.2-.6 1.8l6.3 69.7c.1 1.2 1.2 2.2 2.4 2.2h62c1.2 0 2.3-1 2.4-2.2l6.3-69.7c.1-.7-.2-1.3-.6-1.8-.5-.5-1.1-.8-1.8-.8h-10.9l1.6-12.3c.2-1.4 1-2.7 2.3-3.4s2.8-.9 4.1-.3l14.7 5.7c1.2.5 2.6-.1 3.1-1.4.6-1.3-.1-2.7-1.3-3.2zm-30 19.7-2.1 15.4h-4.8l-4.5-6.6c-.8-1.1-2.3-1.4-3.4-.6l-10 6.8c-.2.1-.3.3-.4.4h-29.1l-1.4-15.4zm8.6 56.3h-59.1l-3.3-36.1h29.8l5.5 8.1c.4.5.9.9 1.5 1h.4c.5 0 1-.1 1.4-.4l10-6.8c.6-.4 1-1.1 1-1.9h16zm-18.7-37.2.2.3-6 4.1-4.1-6 6-4.1zm-39.6 45.8-.3-3.7h58.2l-.3 3.7zm63.4-64.9-1.4 15.4h-9.5l2.1-15.4z"/><path d="m1326.2 547.6-14.7-5.7c-2.7-1.1-5.8-.8-8.3.7s-4.2 4-4.6 7l-1.7 12.6h-34.8c-1.2-8.9-8.8-15.8-18.1-15.8-10.1 0-18.2 8.2-18.2 18.2 0 10.1 8.2 18.2 18.2 18.2 1.7 0 3.3-.2 4.9-.7.1.2.2.3.3.4 5.1 6.8 12.2 12.1 20.5 14.8v3.9c0 6.4 4.6 11.7 10.7 12.8v29.2h-10.3c-1.3 0-2.4 1.1-2.4 2.4s1.1 2.4 2.4 2.4h25.4c1.3 0 2.4-1.1 2.4-2.4s-1.1-2.4-2.4-2.4h-10.3v-29.2c6.1-1.1 10.7-6.5 10.7-12.8v-3.9c8.3-2.7 15.4-8 20.5-14.8.1-.1.3-.3.3-.5 3.6-5 6.2-10.8 7.3-17.1.1-.7-.1-1.4-.5-2-.5-.5-1.1-.9-1.8-.9h-19.8l1.6-11.9c.2-1.4 1-2.7 2.3-3.4s2.8-.9 4.1-.3l14.7 5.7c1.2.5 2.6-.1 3.1-1.4.4-1.3-.2-2.7-1.5-3.1zm-73.8 30.8c-2.4-3.5-4.2-7.4-5.3-11.5h49.2l-1.5 11.5zm-21.7-13.9c0-7.4 6-13.4 13.4-13.4 6.6 0 12 4.8 13.2 11h-13.2c-.7 0-1.4.3-1.8.9-.5.5-.7 1.3-.5 2 .8 4.6 2.4 8.9 4.5 12.8-.7.1-1.4.2-2.2.2-7.4-.1-13.4-6.1-13.4-13.5zm62.2 28.7c-1 .3-1.8 1.2-1.8 2.3v5.7c0 4.5-3.7 8.2-8.2 8.2s-8.2-3.7-8.2-8.2v-5.7c0-1.1-.7-2-1.8-2.3-6.4-1.8-12.1-5.3-16.6-10h53.2c-4.5 4.7-10.2 8.2-16.6 10zm25.8-26.3c-1.1 4.2-2.9 8-5.3 11.5h-13.8l1.5-11.5z"/><path d="m153.7 776.3c-.3-1.1-1.2-1.9-2.3-1.9h-32.9l-2.4-6.3 20.6-7.8c1-.4 1.6-1.4 1.6-2.4-.1-1.1-.8-2-1.9-2.2l-28.7-6.3c-.1 0-.3 0-.4-.1 0 0 0 0-.1 0s-.3 0-.4 0c0 0 0 0-.1 0-.3.1-.6.2-.8.3 0 0-.1 0-.1.1-.1.1-.2.1-.3.2 0 0 0 0-.1.1s-.2.2-.2.3l-17.4 23.7c-.6.9-.6 2 0 2.9.5.6 1.2 1 1.9 1 .3 0 .6-.1.9-.2l21-7.9 1.8 4.6h-5.6c-1.1 0-2.1.8-2.3 1.8l-8.8 35.8c-2.4 10-.3 20.5 6 28.8 5.9 7.8 14.8 12.6 24.4 13.2v20h-10.3c-1.3 0-2.4 1.1-2.4 2.4s1.1 2.4 2.4 2.4h12.7 12.7c1.3 0 2.4-1.1 2.4-2.4s-1.1-2.4-2.4-2.4h-10.3v-20c9.7-.6 18.5-5.4 24.5-13.2 6.2-8.2 8.4-18.7 6-28.7zm-39.4-12.6-1.9-4.9 5.3 3.7zm8.9-3.4-5.3-3.6 9.5 2.1zm-21 2.3-1.6 6.3-4.2 1.6zm3.9 4.2 1.7-6.6 2 5.2zm3.5 12.5h7.3 32.7l4.2 17.5h-11.1c-.3-.6-.9-1-1.5-1.1l-10.9-2.9c-1.3-.3-2.6.4-2.9 1.7l-.6 2.3h-21.3zm21.7 18.7 6.2 1.6-1.6 6.2-6.2-1.6zm21.2 39.9c-5.2 6.8-12.9 11-21.4 11.3-1.1 0-2.2 0-3.2 0-8.4-.4-16.2-4.5-21.4-11.3-5.3-7.1-7.2-16.1-5.1-24.7l2.8-11.6h21.2l-1 3.8c-.3 1.3.4 2.6 1.7 2.9l10.9 2.9c.2.1.4.1.6.1.4 0 .8-.1 1.2-.3.6-.3 1-.9 1.1-1.5l2.1-7.8h12.8l2.8 11.7c2.1 8.4.2 17.4-5.1 24.5z"/><path d="m120.8 814.2c-.7-1.1-2.2-1.5-3.3-.8l-9.7 5.8c-.6.3-.9.9-1.1 1.5s-.1 1.3.3 1.8l5.8 9.7c.3.5.9.9 1.5 1.1.2 0 .4.1.6.1.4 0 .9-.1 1.2-.3l9.7-5.8c1.1-.7 1.5-2.2.8-3.3zm-5.1 13.3-3.3-5.5 5.5-3.3 3.3 5.5z"/><path d="m147.9 824.5-10.9-2.9c-1.3-.3-2.6.4-2.9 1.7l-2.9 10.9c-.2.6-.1 1.3.3 1.8.3.6.9 1 1.5 1.1l10.9 2.9c.2.1.4.1.6.1 1.1 0 2-.7 2.3-1.8l2.9-10.9c.2-.6.1-1.3-.3-1.8-.3-.6-.8-1-1.5-1.1zm-5.1 10.3-6.2-1.6 1.6-6.2 6.2 1.6z"/><path d="m442.9 758-14.7-5.7c-2.8-1.1-5.8-.8-8.3.7s-4.2 4-4.6 6.9l-1.7 12h-25.2c-.9 0-1.7.5-2.1 1.3-.5 1-12.8 25.3 6.4 61 8.9 16.5 8.4 25.8 6.4 30.6-2.2 5.4-6.8 6.9-7 6.9-1.2.3-1.9 1.5-1.7 2.7s1.2 2.1 2.4 2.1h28.2c1.2 0 2.2-.9 2.4-2.1s-.6-2.3-1.7-2.7c0 0-4.7-1.5-6.9-6.8-2-4.9-2.6-14.2 6.4-30.7 19.3-35.7 7-60 6.4-61-.4-.8-1.2-1.3-2.1-1.3h-6.9l1.6-11.3c.2-1.4 1-2.7 2.3-3.4s2.8-.9 4.1-.3l14.7 5.7c1.2.5 2.6-.1 3.1-1.4.3-1.3-.3-2.7-1.5-3.2zm-53 18.8h22.9l-2 13.9h-23.9c.5-6.9 2.1-11.8 3-13.9zm26.9 55.1c-7.9 14.7-10.1 26.4-6.6 34.9.8 2 1.9 3.6 3 4.9h-12.8c1.1-1.3 2.2-2.9 3-4.9 3.6-8.5 1.4-20.2-6.6-34.9-7.8-14.4-10.1-26.9-10.1-36.4h40.1c.1 9.5-2.2 22-10 36.4zm7-55.1c.9 2.2 2.5 7 3 13.9h-11l2-13.9z"/><path d="m688.7 783.3v-35.1c0-1.3-1.1-2.4-2.4-2.4h-10.7c-1.3 0-2.4 1.1-2.4 2.4v35.1c-3.1 1.9-10.6 7.2-12.3 15.6v.5 73.9c0 5 4.1 9.1 9.1 9.1h22c5 0 9.1-4.1 9.1-9.1v-73.9c0-.2 0-.3 0-.5-1.8-8.4-9.3-13.7-12.4-15.6zm-4.8-32.7v4.7h-5.9v-4.7zm12.4 122.8c0 2.4-1.9 4.3-4.3 4.3h-22c-2.4 0-4.3-1.9-4.3-4.3v-73.7c1.7-8 10.9-12.7 11-12.8.8-.4 1.3-1.2 1.3-2.2v-24.6h5.9v24.6c0 .9.5 1.7 1.3 2.2.1 0 9.3 4.8 11 12.8v73.7z"/><path d="m668 824.8v25.7c0 1.3 1.1 2.4 2.4 2.4h21.2c1.3 0 2.4-1.1 2.4-2.4v-25.7c0-1.3-1.1-2.4-2.4-2.4h-21.2c-1.4 0-2.4 1-2.4 2.4zm4.8 2.4h16.3v20.8h-16.3z"/><path d="m738.8 811.7h-29.2c-1.3 0-2.4 1.1-2.4 2.4v24.9c0 8.6 6.4 15.7 14.6 16.8v20.8h-4.9c-1.3 0-2.4 1.1-2.4 2.4s1.1 2.4 2.4 2.4h14.7c1.3 0 2.4-1.1 2.4-2.4s-1.1-2.4-2.4-2.4h-4.9v-20.8c8.3-1.2 14.6-8.3 14.6-16.8v-24.9c-.1-1.3-1.2-2.4-2.5-2.4zm-2.4 4.8v15h-24.4v-15zm-12.2 34.8c-6.7 0-12.2-5.5-12.2-12.2v-2.7h24.4v2.7c0 6.7-5.5 12.2-12.2 12.2z"/><path d="m970.8 801.3c-2 3.9-2.3 8.3-1 12.4.1.3.2.7.4 1v.1.1c1.5 3.6 4.1 6.5 7.6 8.2 2.3 1.2 4.8 1.8 7.4 1.8 1.7 0 3.4-.3 5-.8 4.1-1.3 7.5-4.2 9.5-8 .6-1.2.1-2.6-1-3.2l-24.6-12.6c-1.2-.6-2.7-.1-3.3 1zm7.2 16.3c-.8-.7-1.6-1.5-2.2-2.4l4.3-1.7zm4.3 2.2 2.1-4.1 1.1 4.5c-1 0-2.1-.2-3.2-.4zm7.9-.8-1.4-5.7 5.2 2.7c-1 1.3-2.3 2.3-3.8 3zm-10.7-10.5-5.4 2.2c-.3-1.6-.2-3.3.2-4.9z"/><path d="m987.3 839.2-4.9 10.9c-.3.6-.3 1.2-.1 1.8s.7 1.1 1.3 1.3l10.9 4.9c.3.1.7.2 1 .2.9 0 1.8-.5 2.2-1.4l4.9-10.9c.5-1.2 0-2.6-1.2-3.2l-10.9-4.9c-1.3-.4-2.7.1-3.2 1.3zm9.9 7.1-2.9 6.5-6.5-2.9 2.9-6.5z"/><path d="m1017.1 758-12.4-4.8c-2.4-.9-5.1-.7-7.4.6s-3.7 3.6-4.1 6.2l-.9 7h-30.6c-1.3 0-2.4 1.1-2.4 2.4v103.8c0 1.3 1.1 2.4 2.4 2.4h45.8c1.3 0 2.4-1.1 2.4-2.4v-103.8c0-1.3-1.1-2.4-2.4-2.4h-10.2l.8-6.3c.2-1.1.8-2.1 1.8-2.7s2.1-.7 3.2-.3l12.4 4.8c1.2.5 2.6-.1 3.1-1.4.4-1.2-.3-2.6-1.5-3.1zm-25.5 13.8-1.9 14.5h-25.7v-14.5zm13.4 88.5h-41v-26.8l4.9 10.2c.4.9 1.3 1.4 2.2 1.4.4 0 .7-.1 1-.2l10.8-5.2c1.2-.6 1.7-2 1.1-3.2l-5.2-10.8c-.6-1.2-2-1.7-3.2-1.1l-10.8 5.2c-.4.2-.6.4-.9.7v-39.3h40.9v69.1zm-35.8-27.3 6.4-3.1 3.1 6.4-6.4 3.1zm-5.2 37.8v-5.7h40.9v5.7zm41-99v14.5h-10.4l1.9-14.5z"/><path d="m1294 787.7c0-.1 0-.2 0-.2 0-.1 0-.2 0-.3s0-.2 0-.2c0-.1-.1-.2-.1-.3v-.1l-8.7-20.1c-.4-.9-1.3-1.5-2.2-1.5h-5.4c-1-2.8-3.6-4.8-6.7-4.8h-17.4c-3.1 0-5.7 2-6.7 4.8h-5.4c-1 0-1.8.6-2.2 1.5l-8.7 20.1v.1c0 .1-.1.2-.1.3v.2.3.2.1l13.4 71.4c1 5.2 5.5 8.9 10.7 8.9h15.4c5.2 0 9.8-3.7 10.7-8.9l13.4-71.4c-.1 0-.1-.1 0-.1zm-40.7-22.8h17.4c1.3 0 2.3 1 2.3 2.3s-1 2.3-2.3 2.3h-17.4c-1.3 0-2.3-1-2.3-2.3 0-1.2 1.1-2.3 2.3-2.3zm-10.5 4.8h3.8c1 2.8 3.6 4.8 6.7 4.8h17.4c3.1 0 5.7-2 6.7-4.8h3.8l6.6 15.3h-51.7zm33 88.6c-.5 2.9-3.1 5-6 5h-15.4c-2.9 0-5.4-2.1-6-5l-12.9-68.5h53.2z"/><path d="m1323.1 829.9c-.4-.7-1.2-1.1-2-1.1h-26.8c-.8 0-1.6.4-2 1.1s-.5 1.6-.1 2.3l7.6 15.4-7.6 15.4c-.4.7-.3 1.6.1 2.3s1.2 1.1 2 1.1h26.8c.8 0 1.6-.4 2-1.1s.5-1.6.1-2.3l-7.6-15.4 7.6-15.4c.4-.7.3-1.6-.1-2.3zm-24.9 31.9 5.7-11.7h7.6l5.7 11.7zm13.3-16.5h-7.6l-5.7-11.7h19z"/></g></svg>